PathFileType	4	(X/Y/Z)	C:/Users/opensim2020/Desktop/walking_exp_matlab/subject06_walking23_straight_04.trc	
DataRate	CameraRate	NumFrames	NumMarkers	Units	OrigDataRate	OrigDataStartFrame	OrigNumFrames	
100.00	100.00	5	45	mm	100.00	2374	145	
Frame#	Time	LFHD			RFHD			LBHD			RBHD			C7			T10			CLAV			STRN			RBAK			LSHO			LUPA			LELB			LFRM			LWRA			LWRB			LFIN			RSHO			RUPA			RELB			RFRM			RWRA			RWRB			RFIN			LASI			RASI			LPSI			RPSI			LTHI			LKNE			LTIB			LANK			LHEE			LTOE			RTHI			RKNE			RTIB			RANK			RHEE			RTOE			*39			*40			*41			*42			*43			*44			
		X1	Y1	Z1	X2	Y2	Z2	X3	Y3	Z3	X4	Y4	Z4	X5	Y5	Z5	X6	Y6	Z6	X7	Y7	Z7	X8	Y8	Z8	X9	Y9	Z9	X10	Y10	Z10	X11	Y11	Z11	X12	Y12	Z12	X13	Y13	Z13	X14	Y14	Z14	X15	Y15	Z15	X16	Y16	Z16	X17	Y17	Z17	X18	Y18	Z18	X19	Y19	Z19	X20	Y20	Z20	X21	Y21	Z21	X22	Y22	Z22	X23	Y23	Z23	X24	Y24	Z24	X25	Y25	Z25	X26	Y26	Z26	X27	Y27	Z27	X28	Y28	Z28	X29	Y29	Z29	X30	Y30	Z30	X31	Y31	Z31	X32	Y32	Z32	X33	Y33	Z33	X34	Y34	Z34	X35	Y35	Z35	X36	Y36	Z36	X37	Y37	Z37	X38	Y38	Z38	X39	Y39	Z39	X40	Y40	Z40	X41	Y41	Z41	X42	Y42	Z42	X43	Y43	Z43	X44	Y44	Z44	X45	Y45	Z45	

109	1.080	-906.39038	-608.57275	1644.00330	-1038.04333	-615.72046	1641.93848	-917.22504	-476.27368	1588.54138	-1046.61670	-485.48123	1591.00122	-977.82697	-481.28458	1434.91602	-993.00476	-450.85175	1105.27393	-981.52417	-591.97290	1357.89893	-982.50739	-631.71393	1183.03284	-1062.43701	-407.96304	1266.76819	-818.60950	-533.60779	1383.93799	-753.54553	-493.54529	1185.36340	-746.52368	-463.83221	1076.48401	-721.12665	-450.95651	928.12769	-755.37878	-484.88589	800.05414	-724.52905	-422.54361	812.29492	-720.11212	-438.13867	722.89386	-1140.43848	-540.35272	1398.40112	-1244.21045	-490.99942	1213.30566	-1269.54370	-501.60052	1097.40698	-1290.40039	-565.21948	1001.66156	-1255.73853	-686.92145	917.34753	-1296.82239	-641.81177	889.21515	-1298.06433	-713.97278	846.27338	-895.80377	-635.45844	948.93213	-1113.96838	-619.05658	951.51190	-908.75427	-476.68976	970.66107	-1077.50964	-470.23837	978.69263	-826.51312	-637.17651	637.38715	-861.04822	-698.65607	487.89304	-868.81476	-728.15955	236.23119	-909.43237	-773.53204	69.13169	-956.47632	-739.58270	46.31168	-915.36676	-919.69934	71.83270	-1143.94641	-518.87988	618.78595	-1117.94080	-494.90842	494.69049	-1091.85620	-370.68820	253.52238	-1030.17163	-305.92001	83.36546	-980.89532	-266.32211	68.25197	-1043.65601	-452.25195	29.73405	-968.24213	-511.23676	1685.09741															 
110	1.090	-905.81824	-620.71631	1642.17017	-1037.43591	-628.00134	1640.10217	-916.95514	-488.35196	1586.66455	-1046.26306	-497.85297	1589.17896	-977.28137	-493.37512	1433.03760	-992.42926	-463.37347	1103.38379	-981.17224	-604.32599	1356.17346	-982.47974	-644.30450	1181.37585	-1061.84668	-420.18054	1264.97485	-818.16406	-546.16095	1381.81519	-753.29187	-504.71024	1183.56006	-746.45770	-473.70056	1075.02905	-721.22235	-459.10770	926.87122	-755.95190	-490.95963	798.29370	-724.51270	-429.12177	811.60193	-720.82104	-442.96100	721.70673	-1140.05676	-552.45251	1396.67358	-1243.76489	-503.49500	1211.36487	-1269.13074	-514.56006	1095.66919	-1289.79553	-579.50952	1001.00940	-1254.84619	-702.53479	918.92975	-1295.91248	-657.92773	889.89655	-1297.06055	-730.84515	848.33179	-896.16382	-648.95038	947.24469	-1114.15112	-631.46405	949.89014	-907.86908	-490.23633	968.81415	-1076.61914	-482.79047	976.95044	-825.38385	-648.53265	634.70728	-861.08990	-709.80078	485.11597	-870.10211	-748.07404	235.30020	-911.45850	-801.54138	70.31100	-958.82904	-768.85712	46.08598	-916.52625	-947.59894	79.01733	-1143.97778	-529.13739	617.80811	-1118.35657	-504.08438	493.78705	-1092.15759	-375.44400	254.59761	-1030.75122	-307.39124	85.87892	-981.63464	-266.89810	71.42491	-1043.69141	-452.34839	29.67284	-967.92804	-523.45172	1683.20349															 
111	1.100	-905.22009	-632.74628	1640.49097	-1036.86682	-640.30701	1638.43665	-916.70294	-500.40338	1585.01123	-1045.88696	-510.14847	1587.47644	-976.72235	-505.67334	1431.24182	-991.99463	-476.41006	1101.20276	-980.79517	-616.60370	1354.55115	-982.35242	-656.98541	1179.93689	-1061.29504	-432.63953	1262.98755	-817.57288	-558.66956	1379.89172	-752.91284	-515.81683	1181.93982	-746.23883	-483.77225	1073.73694	-721.28961	-467.60007	925.61090	-756.61517	-497.96957	796.87140	-724.67517	-436.64310	810.59149	-721.50024	-449.03250	720.65930	-1139.61621	-564.52234	1395.03943	-1243.24500	-516.02905	1209.54443	-1268.54504	-527.42841	1094.02087	-1289.06116	-593.49152	1000.26141	-1254.00488	-717.67218	920.16351	-1294.95020	-673.38538	890.46021	-1296.10999	-747.01648	849.97040	-896.50940	-662.54706	945.66510	-1114.27734	-644.04706	948.39655	-906.83472	-503.95227	967.06854	-1075.62158	-495.47452	975.21350	-824.71643	-660.86536	632.57275	-861.19940	-721.32977	482.75839	-871.73102	-766.45166	234.38350	-913.95844	-826.11328	71.51998	-961.70355	-794.95953	46.44778	-917.13318	-972.05261	85.45444	-1144.39001	-539.87402	616.79102	-1118.79785	-514.05322	492.83026	-1092.73547	-380.77505	255.80933	-1031.66003	-308.85608	88.31032	-982.89087	-267.89777	75.25807	-1043.80493	-452.42999	29.56612	-967.46027	-535.62848	1681.46069															 
112	1.110	-904.54193	-644.85321	1638.96887	-1036.13074	-652.53113	1636.97717	-916.18298	-512.46057	1583.22241	-1045.26306	-522.38782	1585.86841	-975.81128	-517.68134	1429.44275	-991.36444	-489.33441	1099.32288	-980.30170	-628.94287	1353.13269	-982.19849	-669.76648	1178.68091	-1060.68176	-444.92630	1261.21448	-816.90662	-571.07062	1378.15076	-752.39349	-526.97180	1180.51013	-745.82782	-493.99637	1072.50317	-721.24670	-476.67368	924.59503	-757.34692	-505.72977	795.60968	-724.55652	-444.62357	809.91388	-722.28058	-456.10751	719.69434	-1139.09277	-576.63141	1393.56543	-1242.56226	-528.51813	1207.84192	-1267.79797	-540.27325	1092.48596	-1288.28601	-607.14081	999.51764	-1253.07520	-732.23590	920.99512	-1293.87744	-688.28058	890.60071	-1294.86279	-762.14258	850.99603	-896.64740	-676.33087	944.30243	-1114.25452	-656.76459	947.05737	-905.70404	-517.80969	965.51605	-1074.50037	-508.28702	973.51685	-824.59784	-674.54272	631.06738	-861.53693	-733.20148	480.99402	-873.60040	-783.58191	233.64035	-916.41376	-847.30750	72.50833	-964.99701	-817.52313	46.95841	-917.52667	-993.44177	89.70049	-1144.61804	-551.32886	615.81439	-1119.16589	-524.91663	491.77173	-1093.48853	-386.81415	257.17401	-1033.21655	-310.15170	91.43348	-984.16974	-269.06747	79.37221	-1044.06641	-452.38770	29.42003	-966.91333	-547.75677	1679.85352															 
113	1.120	-903.75763	-656.87952	1637.65942	-1035.74084	-665.08276	1635.79712	-915.50165	-524.61139	1581.84375	-1044.71045	-534.63049	1584.67334	-975.39838	-529.78717	1428.08765	-990.80560	-502.63593	1097.51184	-979.66577	-641.37262	1351.96118	-981.89685	-682.71246	1177.70105	-1059.79443	-457.53043	1259.53662	-816.21478	-583.46234	1376.67639	-751.73615	-538.33557	1179.31628	-745.35699	-504.48392	1071.49402	-721.17584	-486.26614	923.56573	-758.08496	-513.93298	794.49658	-724.49933	-453.59439	809.35583	-722.93958	-464.23810	718.72968	-1138.43127	-588.65900	1392.29370	-1241.55823	-541.03992	1206.21912	-1266.92810	-552.95538	1091.09790	-1287.29895	-620.54041	998.67004	-1252.13354	-746.34534	921.47217	-1292.73389	-702.74286	890.45801	-1294.27307	-777.01855	851.91504	-896.77087	-690.14288	943.14667	-1114.27148	-669.65973	945.92499	-904.77600	-531.55872	964.18451	-1073.52039	-521.24487	971.92017	-825.19745	-688.77081	629.99908	-862.13953	-745.63110	479.75613	-875.59882	-799.06519	232.79393	-918.89960	-864.98230	72.67215	-968.28265	-836.38068	47.03313	-917.72510	-1010.73810	91.62872	-1144.73718	-563.52484	614.79474	-1119.64441	-536.72913	490.73141	-1094.31592	-393.50186	258.78989	-1034.59387	-312.45383	94.93668	-985.88245	-271.16901	84.05391	-1044.05103	-452.70502	29.29805	-966.22449	-559.87524	1678.54797															 
